<svg width="209" height="34" viewBox="0 0 209 34" fill="none" xmlns="http://www.w3.org/2000/svg">
<g style="mix-blend-mode:multiply" opacity="0.1">
<path d="M202.086 6.81032C205.043 6.81032 205.043 4.42676 208 4.42676V33.9997H1V19.6645C4.20357 19.6645 3.95715 20.5413 6.91429 20.5413C9.87143 20.5413 9.87143 18.0514 12.8286 18.0514C15.7857 18.0514 15.2929 18.8175 18.7429 18.8175C22.1929 18.8175 21.2071 20.2519 24.6572 20.2519C28.1071 20.2519 27.3678 19.7071 30.5714 19.7071C33.775 19.7071 33.1589 17.1107 36.4857 17.1107C39.8125 17.1107 38.95 17.9577 42.4 17.9577C45.85 17.9577 45.2339 19.124 48.3143 19.124C51.3947 19.124 50.9018 15.2507 54.2286 15.2507C57.5554 15.2507 57.1857 16.5914 60.1429 16.5914C63.1 16.5914 62.6071 14.7144 66.0571 14.7144C69.5071 14.7144 68.7679 15.9147 71.9714 15.9147C75.175 15.9147 74.6821 11.0071 77.8857 11.0071C81.0893 11.0071 80.4732 12.3734 83.8 12.3734C87.1268 12.3734 86.2643 13.2757 89.7143 13.2757C93.1643 13.2757 92.3018 10.9347 95.6286 10.9347C98.9554 10.9347 98.0929 12.084 101.543 12.084C104.993 12.084 104.377 10.1899 107.457 10.1899C110.537 10.1899 110.168 7.02314 113.371 7.02314C116.575 7.02314 116.082 12.3223 119.286 12.3223C122.489 12.3223 122.12 8.61076 125.2 8.61076C128.28 8.61076 127.664 10.2367 131.114 10.2367C134.564 10.2367 133.825 11.6966 137.029 11.6966C140.232 11.6966 139.862 9.27901 142.943 9.27901C146.023 9.27901 145.777 11.5774 148.857 11.5774C151.938 11.5774 151.568 10.5559 154.771 10.5559C157.975 10.5559 157.482 8.44902 160.686 8.44902C163.889 8.44902 163.396 9.29178 166.6 9.29178C169.804 9.29178 169.557 6.21443 172.514 6.21443C175.471 6.21443 174.979 10.4325 178.429 10.4325C181.879 10.4325 181.016 7.56795 184.343 7.56795C187.67 7.56795 187.177 8.74696 190.257 8.74696C193.338 8.74696 193.091 5.81008 196.171 5.81008C199.252 5.81008 199.129 6.81032 202.086 6.81032Z" fill="url(#paint0_linear_2014_27338)"/>
</g>
<path d="M208 4.42676C205.043 4.42676 205.043 6.81032 202.086 6.81032C199.129 6.81032 199.252 5.81008 196.171 5.81008C193.091 5.81008 193.338 8.74696 190.257 8.74696C187.177 8.74696 187.67 7.56795 184.343 7.56795C181.016 7.56795 181.879 10.4325 178.429 10.4325C174.979 10.4325 175.471 6.21443 172.514 6.21443C169.557 6.21443 169.804 9.29178 166.6 9.29178C163.396 9.29178 163.889 8.44902 160.686 8.44902C157.482 8.44902 157.975 10.5559 154.771 10.5559C151.568 10.5559 151.938 11.5774 148.857 11.5774C145.777 11.5774 146.023 9.27901 142.943 9.27901C139.862 9.27901 140.232 11.6966 137.029 11.6966C133.825 11.6966 134.564 10.2367 131.114 10.2367C127.664 10.2367 128.28 8.61076 125.2 8.61076C122.12 8.61076 122.489 12.3223 119.286 12.3223C116.082 12.3223 116.575 7.02314 113.371 7.02314C110.168 7.02314 110.538 10.1899 107.457 10.1899C104.377 10.1899 104.993 12.084 101.543 12.084C98.0929 12.084 98.9554 10.9347 95.6286 10.9347C92.3018 10.9347 93.1643 13.2757 89.7143 13.2757C86.2643 13.2757 87.1268 12.3734 83.8 12.3734C80.4732 12.3734 81.0893 11.0071 77.8857 11.0071C74.6821 11.0071 75.175 15.9147 71.9714 15.9147C68.7679 15.9147 69.5071 14.7144 66.0571 14.7144C62.6071 14.7144 63.1 16.5914 60.1429 16.5914C57.1857 16.5914 57.5554 15.2507 54.2286 15.2507C50.9018 15.2507 51.3946 19.124 48.3143 19.124C45.2339 19.124 45.85 17.9577 42.4 17.9577C38.95 17.9577 39.8125 17.1107 36.4857 17.1107C33.1589 17.1107 33.775 19.7071 30.5714 19.7071C27.3679 19.7071 28.1071 20.2519 24.6571 20.2519C21.2071 20.2519 22.1929 18.8175 18.7429 18.8175C15.2929 18.8175 15.7857 18.0514 12.8286 18.0514C9.87144 18.0514 9.87143 20.5413 6.91429 20.5413C3.95715 20.5413 4.20357 19.6645 1 19.6645" stroke="#D96656" stroke-width="2" stroke-linecap="round" stroke-linejoin="round"/>
<defs>
<linearGradient id="paint0_linear_2014_27338" x1="104.5" y1="4.42676" x2="104.5" y2="32.6831" gradientUnits="userSpaceOnUse">
<stop stop-color="#D97656"/>
<stop offset="1" stop-color="#D96E56" stop-opacity="0"/>
</linearGradient>
</defs>
</svg>
