<svg width="633" height="237" viewBox="0 0 633 237" fill="none" xmlns="http://www.w3.org/2000/svg">
<path fill-rule="evenodd" clip-rule="evenodd" d="M130.753 51.1709L96.1804 224.994C93.2874 239.539 73.2416 241.403 67.7169 227.64L0 58.9419L23.064 49.6838L78.3269 187.356L113.203 12.0053C116.133 -2.72639 136.545 -4.37292 141.798 9.69872L170.516 86.6214H215.325V111.474H153.266L130.753 51.1709Z" fill="white"/>
<path d="M264.146 131.886L223.996 235.383H195.83L155.68 131.886H181.448C183.645 131.886 185.476 132.419 186.941 133.483C188.473 134.481 189.505 135.746 190.037 137.276L204.42 183.685C205.685 187.477 206.784 191.17 207.716 194.763C208.715 198.356 209.58 201.949 210.313 205.542C211.777 198.356 213.808 191.07 216.405 183.685L231.387 137.276C231.919 135.746 232.918 134.481 234.383 133.483C235.848 132.419 237.579 131.886 239.577 131.886H264.146Z" fill="white"/>
<path d="M305.908 131.886V235.383H274.946V131.886H305.908ZM309.104 103.542C309.104 106.004 308.604 108.333 307.606 110.528C306.607 112.658 305.242 114.554 303.511 116.217C301.779 117.814 299.749 119.112 297.418 120.11C295.154 121.041 292.724 121.507 290.127 121.507C287.597 121.507 285.233 121.041 283.036 120.11C280.838 119.112 278.874 117.814 277.143 116.217C275.478 114.554 274.147 112.658 273.148 110.528C272.216 108.333 271.75 106.004 271.75 103.542C271.75 101.014 272.216 98.6518 273.148 96.4561C274.147 94.2605 275.478 92.3309 277.143 90.6675C278.874 89.0041 280.838 87.7067 283.036 86.7752C285.233 85.8437 287.597 85.3779 290.127 85.3779C292.724 85.3779 295.154 85.8437 297.418 86.7752C299.749 87.7067 301.779 89.0041 303.511 90.6675C305.242 92.3309 306.607 94.2605 307.606 96.4561C308.604 98.6518 309.104 101.014 309.104 103.542Z" fill="white"/>
<path d="M364.556 236.98C359.629 236.98 355.267 236.281 351.472 234.884C347.743 233.42 344.58 231.391 341.984 228.796C339.453 226.134 337.522 222.941 336.191 219.215C334.859 215.489 334.193 211.33 334.193 206.739V153.244H325.404C323.806 153.244 322.441 152.745 321.309 151.747C320.177 150.683 319.611 149.152 319.611 147.156V135.08L336.091 131.886L342.183 106.636C342.982 103.442 345.246 101.846 348.975 101.846H365.155V132.086H390.824V153.244H365.155V204.643C365.155 207.039 365.721 209.035 366.853 210.632C368.052 212.162 369.749 212.927 371.947 212.927C373.079 212.927 374.011 212.827 374.743 212.628C375.542 212.362 376.208 212.095 376.741 211.829C377.34 211.497 377.873 211.23 378.339 211.031C378.872 210.765 379.471 210.632 380.137 210.632C381.069 210.632 381.801 210.864 382.334 211.33C382.933 211.729 383.533 212.395 384.132 213.326L393.52 227.997C389.525 230.992 385.031 233.254 380.037 234.784C375.043 236.248 369.883 236.98 364.556 236.98Z" fill="white"/>
<path d="M457.599 193.266C451.407 193.532 446.313 194.064 442.318 194.863C438.323 195.661 435.16 196.659 432.83 197.857C430.499 199.054 428.868 200.418 427.936 201.949C427.07 203.479 426.637 205.142 426.637 206.939C426.637 210.465 427.603 212.96 429.534 214.424C431.465 215.821 434.295 216.52 438.023 216.52C442.018 216.52 445.514 215.821 448.511 214.424C451.507 213.027 454.536 210.765 457.599 207.637V193.266ZM401.868 146.258C408.127 140.736 415.052 136.644 422.642 133.982C430.3 131.254 438.489 129.89 447.212 129.89C453.471 129.89 459.097 130.922 464.091 132.984C469.152 134.98 473.413 137.808 476.876 141.468C480.405 145.061 483.101 149.352 484.966 154.342C486.83 159.332 487.762 164.788 487.762 170.71V235.383H473.58C470.65 235.383 468.419 234.984 466.888 234.185C465.423 233.387 464.191 231.723 463.192 229.195L460.995 223.506C458.398 225.702 455.901 227.631 453.504 229.295C451.107 230.958 448.61 232.389 446.014 233.586C443.483 234.718 440.753 235.549 437.824 236.082C434.96 236.68 431.764 236.98 428.235 236.98C423.508 236.98 419.213 236.381 415.351 235.183C411.489 233.919 408.193 232.089 405.463 229.694C402.8 227.299 400.736 224.338 399.271 220.812C397.806 217.219 397.074 213.093 397.074 208.436C397.074 204.71 398.006 200.951 399.87 197.158C401.735 193.299 404.964 189.806 409.558 186.679C414.153 183.485 420.345 180.824 428.136 178.694C435.926 176.565 445.747 175.368 457.599 175.101V170.71C457.599 164.655 456.334 160.297 453.804 157.636C451.34 154.908 447.811 153.544 443.217 153.544C439.555 153.544 436.559 153.943 434.228 154.742C431.898 155.54 429.8 156.438 427.936 157.436C426.138 158.434 424.373 159.332 422.642 160.131C420.911 160.929 418.847 161.329 416.45 161.329C414.319 161.329 412.521 160.796 411.057 159.732C409.592 158.667 408.393 157.403 407.461 155.939L401.868 146.258Z" fill="white"/>
<path d="M538.516 85.9767V235.383H507.554V85.9767H538.516Z" fill="white"/>
<path d="M625.262 154.542C624.463 155.806 623.597 156.704 622.665 157.237C621.8 157.769 620.668 158.035 619.269 158.035C617.805 158.035 616.34 157.736 614.875 157.137C613.41 156.471 611.812 155.773 610.081 155.041C608.416 154.309 606.518 153.644 604.388 153.045C602.257 152.379 599.827 152.047 597.097 152.047C593.168 152.047 590.139 152.812 588.008 154.342C585.944 155.806 584.912 157.869 584.912 160.53C584.912 162.46 585.577 164.057 586.909 165.321C588.307 166.585 590.139 167.716 592.402 168.714C594.666 169.646 597.23 170.544 600.093 171.409C602.956 172.274 605.886 173.238 608.882 174.303C611.878 175.368 614.808 176.632 617.671 178.096C620.535 179.493 623.098 181.256 625.362 183.385C627.626 185.448 629.424 187.976 630.755 190.97C632.154 193.964 632.853 197.557 632.853 201.749C632.853 206.872 631.921 211.596 630.056 215.921C628.192 220.246 625.395 223.972 621.666 227.099C618.004 230.226 613.443 232.655 607.983 234.385C602.59 236.115 596.364 236.98 589.306 236.98C585.777 236.98 582.248 236.647 578.719 235.982C575.19 235.316 571.761 234.418 568.432 233.287C565.169 232.156 562.14 230.825 559.343 229.295C556.547 227.698 554.149 226.001 552.152 224.205L559.343 212.827C560.142 211.497 561.141 210.465 562.339 209.733C563.604 208.935 565.203 208.536 567.133 208.536C568.931 208.536 570.529 208.935 571.928 209.733C573.392 210.532 574.957 211.397 576.622 212.328C578.286 213.26 580.217 214.125 582.415 214.923C584.679 215.722 587.508 216.121 590.904 216.121C593.301 216.121 595.332 215.888 596.997 215.422C598.661 214.89 599.993 214.191 600.992 213.326C601.991 212.461 602.723 211.497 603.189 210.432C603.655 209.367 603.888 208.27 603.888 207.138C603.888 205.076 603.189 203.379 601.791 202.048C600.393 200.718 598.562 199.587 596.298 198.655C594.034 197.657 591.437 196.759 588.507 195.96C585.644 195.095 582.714 194.131 579.718 193.066C576.722 192.002 573.759 190.737 570.829 189.274C567.966 187.743 565.402 185.847 563.138 183.585C560.874 181.256 559.043 178.428 557.645 175.101C556.247 171.775 555.548 167.749 555.548 163.025C555.548 158.634 556.38 154.475 558.045 150.55C559.776 146.558 562.339 143.064 565.735 140.07C569.131 137.076 573.392 134.714 578.519 132.984C583.647 131.188 589.639 130.29 596.497 130.29C600.226 130.29 603.822 130.622 607.284 131.288C610.813 131.953 614.109 132.884 617.172 134.082C620.235 135.28 623.031 136.71 625.562 138.374C628.092 139.971 630.322 141.734 632.253 143.663L625.262 154.542Z" fill="white"/>
</svg>
